# xmcd CD database file
#
# Track frame offsets:
#	150
#	13092
#	26520
#	41598
#	52978
#	67528
#	82265
#	96512
#	106589
#	116293
#	131263
#	141529
#	153611
#	167764
#	181160
#	193247
#	205605
#	220462
#	233515
#	246735
#	259526
#
# Disc length: 3609 seconds
#
# Revision: 0
# Processed by: cddbd v1.5.2PL0 Copyright (c) Steve Scherf et al.
# Submitted via: CDex 1.70beta2
#
DISCID=220e1715
DTITLE=Lionel Hampton - Jazz Roads CD127 - Swing - Lionel Hampton Groups Vol.3 (1939)
DYEAR=2006
DGENRE=Jazz
TTITLE0=Lionel Hampton And His Orchestra - If It's Good (Then I Want It)
TTITLE1=Lionel Hampton And His Orchestra - Stand By For Further Announcements
TTITLE2=Lionel Hampton And His Orchestra - Ain't Cha Comin' Home
TTITLE3=Lionel Hampton And His Orchestra - Big-Wig In The Wigwam
TTITLE4=Lionel Hampton And His Orchestra - Memories Of You
TTITLE5=Lionel Hampton And His Orchestra - The Jumpin' Jive
TTITLE6=Lionel Hampton And His Orchestra - 12th Street Rag
TTITLE7=Lionel Hampton And His Orchestra - When Lights Are Low (1)
TTITLE8=Lionel Hampton And His Orchestra - When Lights Are Low (2)
TTITLE9=Lionel Hampton And His Orchestra - One Sweet Letter From You
TTITLE10=Lionel Hampton And His Orchestra - Hot Mallets
TTITLE11=Lionel Hampton And His Orchestra - Early Session Hop
TTITLE12=Lionel Hampton And His Orchestra - I'm On My Way From You
TTITLE13=Lionel Hampton And His Orchestra - Haven't Named It Yet
TTITLE14=Lionel Hampton And His Orchestra - The Heebie Jeebies Are Rockin' The Town (1)
TTITLE15=Lionel Hampton And His Orchestra - The Heebie Jeebies Are Rockin' The Town (2)
TTITLE16=Lionel Hampton And His Orchestra - The Munson Street Breakdown
TTITLE17=Lionel Hampton And His Orchestra - I've Found A New Baby
TTITLE18=Lionel Hampton And His Orchestra - I Can't Get Started
TTITLE19=Lionel Hampton And His Orchestra - Four Or Five Times
TTITLE20=Lionel Hampton And His Orchestra - Gin For Christmas
EXTD=YEAR: 2006
EXTT0=
EXTT1=
EXTT2=
EXTT3=
EXTT4=
EXTT5=
EXTT6=
EXTT7=
EXTT8=
EXTT9=
EXTT10=
EXTT11=
EXTT12=
EXTT13=
EXTT14=
EXTT15=
EXTT16=
EXTT17=
EXTT18=
EXTT19=
EXTT20=
PLAYORDER=
